<svg width="236" height="71" viewBox="0 0 236 71" fill="none" xmlns="http://www.w3.org/2000/svg">
<path d="M13.9873 63.8634C11.854 63.8722 9.86854 63.5177 8.03091 62.7999C6.19345 62.1248 4.71725 61.1068 3.60231 59.7461C2.53021 58.4278 1.9903 56.83 1.98258 54.9527C1.97415 52.9047 2.54286 51.1317 3.68871 49.6336C4.83455 48.1356 6.3227 46.8708 8.15314 45.8392C9.98357 44.8077 11.9641 43.9675 14.0948 43.3188C16.2682 42.6698 18.3781 42.1705 20.4247 41.8207C22.4713 41.471 24.2411 41.2504 25.734 41.1589C25.99 41.1578 26.3527 41.1563 26.822 41.1544C27.3338 41.1096 27.9311 41.0858 28.6137 41.083C30.0644 41.0771 31.7926 41.1126 33.7982 41.1897C35.8466 41.2666 37.7886 41.4293 39.6243 41.6777C41.021 38.9413 42.247 36.1629 43.302 33.3425C44.3998 30.522 45.4977 27.7441 46.5958 25.0089C47.7364 22.2309 49.0908 19.5799 50.6591 17.0561C48.6545 17.235 46.65 17.4566 44.6458 17.7209C42.6413 17.9425 40.7021 18.4624 38.8281 19.2808C34.9523 20.9608 32.1017 22.9139 30.2762 25.1401C28.4506 27.3663 27.4348 29.3544 27.2287 31.1046C27.1869 31.3182 27.1664 31.5316 27.1673 31.7449C27.168 31.9156 27.1687 32.0862 27.1694 32.2569C27.1749 33.5796 27.4776 34.5596 28.0775 35.1972C28.72 35.7919 29.5105 36.0873 30.4492 36.0834C31.5585 36.0789 32.709 35.7115 33.9007 34.9812C35.135 34.2508 36.219 33.265 37.1525 32.0238C38.0859 30.74 38.6135 29.3298 38.7352 27.7933L38.7328 27.2173C38.731 26.7906 38.6872 26.5135 38.6014 26.3858C38.558 26.2153 38.4936 26.1089 38.4081 26.0666C37.9375 25.7699 37.7015 25.4508 37.7001 25.1095C37.6989 24.8109 37.8472 24.5542 38.1449 24.3397C38.4427 24.1251 38.7623 24.0171 39.1036 24.0157C39.5729 24.0138 40.0219 24.2466 40.4505 24.7142C40.8789 25.1391 41.0954 25.9062 41.1 27.0155C41.1091 29.2342 40.5412 31.1992 39.3962 32.9106C38.2512 34.622 36.8274 35.9505 35.1246 36.8962C33.4645 37.8417 31.8451 38.3177 30.2664 38.3242C28.7731 38.3304 27.4912 37.8663 26.4206 36.932C25.35 35.9551 24.8103 34.4213 24.8017 32.3306C24.8007 32.0746 24.7996 31.8186 24.7985 31.5626C24.8402 31.3065 24.8818 31.0503 24.9234 30.7941C25.2127 28.5316 26.4189 26.1373 28.5419 23.6112C30.6646 21.0424 33.7918 18.8962 37.9235 17.1725C40.2234 16.1817 42.6103 15.5746 45.084 15.3511C47.6005 15.1274 50.0954 14.8611 52.5688 14.5523C53.2063 13.9523 53.887 13.4588 54.6107 13.0718C55.3771 12.6847 56.1443 12.4895 56.9123 12.4864C57.5097 12.4839 57.9796 12.6313 58.3222 12.9286C58.6647 13.2258 58.8369 13.5878 58.8386 14.0145C58.8407 14.5265 58.5015 15.0399 57.821 15.5547C57.1831 16.0693 56.0539 16.4366 54.4335 16.6566C54.135 16.7005 53.8365 16.7444 53.538 16.7883C52.7742 17.8154 51.969 19.1414 51.1224 20.7663C50.2755 22.3484 49.4928 23.9517 48.7741 25.576C47.4214 28.6536 46.26 31.5384 45.2897 34.2304C44.3194 36.9224 43.2208 39.5296 41.9938 42.052C43.0189 42.3038 43.8948 42.5988 44.6215 42.9372C45.3907 43.2327 45.9042 43.5933 46.162 44.0189C46.3339 44.3168 46.4204 44.6151 46.4217 44.9138C46.4239 45.4685 46.1691 45.7468 45.6571 45.749C45.2304 45.7507 44.8244 45.5817 44.439 45.242C44.3106 45.1572 43.9261 45.0307 43.2854 44.8627C42.6872 44.6518 41.897 44.4417 40.9148 44.2325C39.5173 46.7982 37.9275 49.2581 36.1451 51.6121C34.3628 53.9662 32.3661 56.0651 30.155 57.9088C27.9865 59.7524 25.5604 61.1918 22.8767 62.2268C20.1931 63.3045 17.23 63.8501 13.9873 63.8634ZM4.28656 54.9432C4.2941 56.7779 5.15384 58.3317 6.86575 59.6047C8.62051 60.9201 10.9912 61.5717 13.9779 61.5594C17.8605 61.5434 21.313 60.6972 24.3355 59.0208C27.4008 57.3868 30.1013 55.221 32.4368 52.5234C34.7726 49.8684 36.7873 46.9588 38.481 43.7945L38.417 43.7947C37.1363 43.6293 35.8131 43.5068 34.4474 43.4271C33.0818 43.3473 31.7163 43.3103 30.3509 43.3159C27.2363 43.3287 24.1013 43.5763 20.9459 44.0586C17.8332 44.5407 14.9351 45.342 12.2517 46.4624C9.90895 47.4107 7.9937 48.5706 6.506 49.9421C5.01847 51.3562 4.27866 53.0232 4.28656 54.9432ZM52.6676 50.8402C51.2169 50.8461 50.1913 50.445 49.5906 49.6368C48.9898 48.7859 48.6868 47.7418 48.6817 46.5045C48.6775 45.4805 48.8223 44.3706 49.116 43.1747C49.4523 41.936 49.8739 40.7182 50.381 39.5215C50.4168 37.8573 50.8581 36.2128 51.7047 34.588C52.594 32.963 53.7832 31.6141 55.2721 30.5413C56.8037 29.4683 58.5935 28.9276 60.6415 28.9192C62.6468 28.9109 64.0358 29.4812 64.8085 30.63C65.6239 31.7787 66.0349 33.1423 66.0414 34.721C66.0452 35.6597 65.9425 36.6201 65.7332 37.6023C65.5238 38.5418 65.2501 39.439 64.9123 40.2937C64.5745 41.1484 64.1514 42.0248 63.6431 42.9229C63.1346 43.7784 62.5621 44.6341 61.9257 45.49C63.2048 45.2714 64.3124 44.8615 65.2486 44.2603C66.2273 43.6163 67.205 42.7376 68.1818 41.6243C69.1586 40.5109 70.3048 39.0982 71.6204 37.3861C71.8752 37.0864 72.1519 36.9359 72.4505 36.9347C72.7919 36.9333 73.0696 37.0388 73.2839 37.2512C73.5407 37.4635 73.6699 37.7403 73.6713 38.0816C73.6723 38.3376 73.588 38.5727 73.4182 38.7867C72.1879 40.4984 70.9355 42.0396 69.6612 43.4102C68.4295 44.7806 67.0259 45.853 65.4504 46.6275C63.8749 47.402 61.9778 47.7938 59.7592 47.803C58.7388 48.7032 57.6325 49.4331 56.4401 49.9926C55.2478 50.5522 53.9902 50.8347 52.6676 50.8402ZM56.3114 34.249C55.8009 34.6351 55.1854 35.4057 54.4649 36.5606C53.7443 37.7156 53.0881 38.977 52.4964 40.3448C52.5872 41.6671 53.1254 42.8595 54.1111 43.9222C55.1393 44.9419 56.699 45.5115 58.7902 45.6309C60.3201 44.1313 61.5502 42.3769 62.4806 40.3677C63.4108 38.3159 63.8726 36.4793 63.8659 34.858C63.8614 33.7486 63.6017 32.8537 63.0869 32.1731C62.5721 31.4926 61.76 31.1546 60.6507 31.1591C59.8827 31.1623 59.1366 31.2934 58.4123 31.5524C57.688 31.8113 57.0281 32.1554 56.4325 32.5845C56.6467 32.797 56.7544 33.0525 56.7557 33.3512C56.7571 33.6925 56.609 33.9918 56.3114 34.249ZM50.9212 46.3673C50.924 47.05 51.0543 47.6041 51.312 48.0297C51.6123 48.4125 52.061 48.6026 52.6584 48.6002C53.8957 48.5951 55.1528 48.2059 56.4296 47.4327C55.191 47.1391 54.1438 46.6741 53.2878 46.0376C52.4317 45.3584 51.7672 44.5931 51.2944 43.7417C51.0426 44.7668 50.9182 45.642 50.9212 46.3673ZM65.8736 50.2098C65.5749 50.2111 65.2972 50.1055 65.0403 49.8933C64.7836 49.7236 64.6758 49.4467 64.7169 49.0626C64.8788 46.9286 65.4658 44.4301 66.4781 41.5673C67.533 38.7042 68.8223 35.7976 70.3462 32.8473C69.834 32.8067 69.3218 32.7448 68.8094 32.6616C68.5104 32.5775 68.2751 32.4291 68.1036 32.2165C67.9321 32.0039 67.8458 31.7909 67.845 31.5776C67.8441 31.3642 67.9073 31.172 68.0346 31.0008C68.2044 30.7867 68.4386 30.6791 68.7373 30.6779C68.9933 30.6768 69.2708 30.7184 69.5698 30.8025C69.9113 30.8437 70.2741 30.8636 70.658 30.862C70.914 30.8609 71.1487 30.86 71.362 30.8591C72.8436 27.9943 74.4112 25.2998 76.0648 22.7757C77.7183 20.2088 79.2455 18.0692 80.6465 16.3568C81.4956 15.3293 82.3875 14.3442 83.3223 13.4017C84.2571 12.4592 85.214 11.6873 86.1928 11.0859C87.2142 10.4417 88.1942 10.1177 89.1329 10.1138C90.3702 10.1087 91.2249 10.4465 91.697 11.1273C92.2117 11.7651 92.471 12.5748 92.475 13.5561C92.4808 14.9641 92.1027 16.395 91.3407 17.8488C90.7056 19.0461 89.7513 20.4367 88.4778 22.0206C87.2042 23.5618 85.7172 25.104 84.0168 26.647C82.359 28.1472 80.551 29.4559 78.5929 30.5733C76.6775 31.6906 74.7178 32.4026 72.7137 32.7095C71.8247 34.4199 71.021 36.1085 70.3025 37.7755C69.6267 39.4423 69.0358 41.0234 68.53 42.5188C68.8696 42.0908 69.2091 41.6627 69.5487 41.2346C70.6524 39.8647 71.7565 38.5802 72.8609 37.381C73.9651 36.1391 75.368 34.896 77.0696 33.6516C78.7711 32.4073 80.2818 31.4197 81.6014 30.689C82.9636 29.9153 83.8581 29.549 84.2849 29.5899C85.1815 29.7142 85.6315 30.203 85.635 31.0564C85.6373 31.611 85.4692 32.2517 85.1309 32.9785C84.835 33.6623 84.5176 34.2823 84.1785 34.8384C83.8395 35.3945 83.6064 35.7794 83.4793 35.9933C83.0129 36.7205 82.3774 37.8112 81.5727 39.2651C80.768 40.7191 80.0912 42.1299 79.5421 43.4975C79.3734 43.9676 79.2047 44.4589 79.0362 44.9716C78.9101 45.4415 78.8478 45.8471 78.8492 46.1884C78.8515 46.7431 79.0873 47.0194 79.5566 47.0175C79.9833 47.0158 80.601 46.7999 81.4099 46.3699C82.4316 45.811 83.3674 45.1031 84.2172 44.2463C85.1095 43.3466 85.8744 42.5755 86.5117 41.9329C86.5542 41.89 86.7453 41.6759 87.0851 41.2905C87.4675 40.9049 87.8286 40.5194 88.1683 40.134C88.5508 39.7484 88.742 39.5557 88.742 39.5557C88.9118 39.3416 89.1246 39.2341 89.3806 39.233C89.594 39.2321 89.7865 39.3594 89.9582 39.6147C90.1724 39.8271 90.2802 40.104 90.2816 40.4453C90.2832 40.8293 90.1779 41.1498 89.9656 41.4066C89.3293 42.3053 88.4587 43.2902 87.3537 44.3614C86.2488 45.4326 85.2711 46.3113 84.4205 46.9975C83.5274 47.6838 82.6122 48.2209 81.6752 48.6088C80.7381 48.9967 79.8855 49.1922 79.1175 49.1953C78.3069 49.1987 77.6233 48.9668 77.0667 48.4998C76.5527 48.0325 76.2937 47.2869 76.2895 46.2629C76.2856 45.3243 76.4946 44.2781 76.9165 43.1243C77.5067 41.3726 78.3742 39.641 79.5192 37.9296C80.7068 36.218 81.6814 34.5713 82.4429 32.9895C79.3358 34.837 76.465 37.0888 73.8306 39.745C71.1962 42.4012 68.9464 45.2051 67.0812 48.1568C67.0399 48.4983 66.9986 48.8399 66.9574 49.1814C66.9588 49.5227 66.8318 49.7792 66.5765 49.9509C66.3639 50.1225 66.1296 50.2088 65.8736 50.2098ZM89.0781 12.354C88.2674 12.3574 87.3093 12.8093 86.2036 13.7099C85.098 14.6104 83.9508 15.7885 82.7621 17.2441C81.6159 18.6568 80.4703 20.1975 79.3251 21.8662C78.1798 23.4923 77.141 25.0753 76.2086 26.6151C75.2761 28.1123 74.5345 29.3527 73.9839 30.3363C75.6881 29.7319 77.5189 28.7857 79.4763 27.4977C81.4337 26.2096 83.2833 24.666 85.0253 22.8668C86.7672 21.0676 88.2097 19.0777 89.3528 16.897C89.6913 16.2129 89.9236 15.6359 90.0496 15.1661C90.2182 14.6534 90.3018 14.2264 90.3004 13.885C90.2979 13.2877 90.1469 12.883 89.8474 12.6709C89.5905 12.4586 89.3341 12.353 89.0781 12.354ZM83.6979 51.0965C83.3992 51.0977 83.1215 50.9922 82.8646 50.7799C82.6077 50.5677 82.4787 50.3122 82.4774 50.0135C82.4771 49.9282 82.5191 49.7573 82.6033 49.501C83.4491 47.6628 84.2743 45.9954 85.0788 44.4988C85.9258 42.9593 86.7943 41.4624 87.6843 40.008C88.0659 39.4091 88.4894 38.6394 88.9548 37.6988C89.4628 36.7153 89.9492 35.668 90.4139 34.5567C90.8785 33.4028 91.258 32.3132 91.5525 31.288C91.8896 30.2626 92.0568 29.4299 92.0542 28.7899C92.0528 28.4486 92.0305 28.214 91.9873 28.0862C91.9445 28.0437 91.9228 27.9585 91.9223 27.8305C91.9209 27.4891 92.0691 27.2112 92.3668 26.9966C92.7071 26.7392 93.0266 26.6099 93.3252 26.6087C93.6666 26.6073 93.9873 26.7766 94.2873 27.1167C94.5872 27.4142 94.7388 27.9469 94.7419 28.7149C94.7446 29.3549 94.5987 30.2088 94.3045 31.2767C94.0527 32.3017 93.6098 33.5409 92.9757 34.9942C92.6374 35.7209 92.3202 36.4049 92.0242 37.0461C91.728 37.6447 91.4317 38.2219 91.1353 38.7778C92.7921 37.0216 94.4923 35.4573 96.236 34.0848C97.9796 32.6696 99.5323 31.5539 100.894 30.7376C102.256 29.9213 103.172 29.5122 103.641 29.5103C104.153 29.5082 104.517 29.656 104.731 29.9538C104.946 30.2516 105.054 30.5925 105.055 30.9765C105.058 31.5311 104.89 32.1718 104.551 32.8986C104.255 33.5825 103.938 34.2024 103.599 34.7585C103.26 35.3146 103.027 35.6995 102.9 35.9134C102.433 36.6406 101.798 37.7313 100.993 39.1853C100.188 40.6392 99.5115 42.05 98.9624 43.4176C98.7937 43.8877 98.6251 44.379 98.4565 44.8917C98.3304 45.3616 98.2681 45.7672 98.2695 46.1085C98.2718 46.6632 98.5076 46.9395 98.9769 46.9376C99.4036 46.9359 100.021 46.72 100.83 46.29C101.852 45.7311 102.788 45.0233 103.638 44.1664C104.53 43.2667 105.295 42.4956 105.932 41.853C105.975 41.8101 106.166 41.596 106.505 41.2106C106.888 40.825 107.249 40.4395 107.589 40.0541C107.971 39.6686 108.162 39.4758 108.162 39.4758C108.332 39.2617 108.545 39.1542 108.801 39.1531C109.014 39.1523 109.207 39.2795 109.379 39.5348C109.593 39.7472 109.701 40.0241 109.702 40.3654C109.704 40.7494 109.598 41.0699 109.386 41.3267C108.75 42.2254 107.879 43.2103 106.774 44.2815C105.669 45.3527 104.691 46.2314 103.841 46.9176C102.948 47.604 102.033 48.1624 101.096 48.5929C100.201 48.9806 99.3061 49.1763 98.4101 49.18C97.6422 49.1831 97.0015 49.0364 96.4883 48.7399C95.9751 48.4433 95.7159 47.655 95.7106 46.375C95.7039 44.7537 96.1027 43.1521 96.9068 41.5701C97.7537 39.9879 98.6859 38.4267 99.7036 36.8865C100.764 35.3462 101.633 33.8919 102.31 32.5238C101.246 33.1682 99.8204 34.1554 98.0338 35.4854C96.2899 36.8152 94.4404 38.3802 92.4851 40.1803C90.5723 41.9375 88.8309 43.8647 87.2608 45.9618C86.9644 46.5177 86.6469 47.1163 86.3082 47.7577C85.9695 48.3991 85.6311 49.1045 85.2929 49.8739C84.9122 50.6862 84.3806 51.0937 83.6979 51.0965ZM152.145 52.9909C149.073 53.0036 145.765 52.5052 142.219 51.4958C140.98 51.1169 139.762 50.6952 138.566 50.2308C137.369 49.7664 136.173 49.2806 134.976 48.7735C133.445 49.9318 131.571 50.8996 129.356 51.6767C127.14 52.4538 125.03 52.8465 123.024 52.8547C120.422 52.8654 118.521 52.2973 117.321 51.1502C116.165 50.0029 115.583 48.7253 115.578 47.3173C115.572 45.8667 116.142 44.5203 117.289 43.2782C118.436 42.0362 120.012 41.411 122.017 41.4028C123.639 41.3961 125.304 41.7946 127.014 42.5982C128.724 43.4019 130.327 44.142 131.823 44.8185C132.251 45.03 132.7 45.2415 133.17 45.4529C133.64 45.6643 134.111 45.8757 134.581 46.0871C135.984 44.844 137.492 43.1951 139.104 41.1405C140.717 39.0858 142.393 36.8176 144.132 34.3357C145.872 31.8539 147.632 29.3293 149.413 26.762C151.237 24.1944 153.062 21.7336 154.887 19.3794C156.712 17.0252 158.538 14.9696 160.366 13.2128C159.084 12.7061 157.717 12.3277 156.265 12.0776C154.813 11.7849 153.255 11.642 151.591 11.6489C147.111 11.6673 143.23 12.1313 139.949 13.0408C136.71 13.9074 133.984 15.0493 131.771 16.4664C129.601 17.8834 127.879 19.4051 126.606 21.0317C125.375 22.6155 124.528 24.1123 124.064 25.5222C123.896 26.0776 123.77 26.5901 123.686 27.0598C123.603 27.4868 123.562 27.9136 123.564 28.3403C123.57 29.791 124.022 30.8771 124.921 31.5988C125.82 32.3204 126.973 32.6783 128.381 32.6725C129.832 32.6666 131.452 32.2546 133.24 31.4365C135.029 30.6185 136.859 29.3523 138.729 27.6379C140.599 25.8809 142.318 23.5911 143.885 20.7686C144.096 20.3838 144.416 20.1905 144.842 20.1887C145.184 20.1873 145.461 20.2928 145.676 20.5053C145.932 20.6749 146.061 20.9304 146.063 21.2717C146.064 21.485 146 21.6986 145.873 21.9125C144.179 24.9061 142.29 27.3673 140.208 29.2958C138.168 31.2243 136.104 32.6621 134.017 33.6093C131.973 34.5138 130.055 34.9697 128.263 34.977C126.258 34.9853 124.591 34.4375 123.264 33.3336C121.937 32.187 121.269 30.5684 121.26 28.4778C121.255 27.3258 121.464 26.1089 121.885 24.8272C122.433 23.0756 123.407 21.3009 124.807 19.5031C126.251 17.7052 128.164 16.0546 130.547 14.5515C132.973 13.0055 135.911 11.756 139.364 10.8032C142.858 9.85011 146.931 9.36402 151.582 9.34489C153.63 9.33646 155.529 9.52065 157.28 9.89744C159.074 10.2741 160.718 10.8006 162.215 11.4772C163.49 10.3626 164.745 9.48273 165.98 8.83765C167.257 8.19239 168.472 7.86739 169.624 7.86265C170.008 7.86107 170.286 7.98793 170.457 8.24322C170.629 8.45585 170.715 8.7115 170.717 9.01016C170.718 9.30883 170.634 9.58651 170.464 9.84321C170.294 10.0572 170.017 10.1651 169.633 10.1666C168.268 10.1722 166.522 10.9901 164.395 12.6202C167.774 14.6543 170.303 17.3746 171.981 20.7811C173.702 24.1873 174.569 27.7038 174.584 31.3304C174.598 34.7011 173.929 37.8825 172.576 40.8748C171.012 44.4226 168.442 47.3132 164.867 49.5466C161.293 51.8226 157.052 52.9708 152.145 52.9909ZM142.914 49.3169C146.118 50.2424 149.17 50.6992 152.072 50.6872C156.637 50.6684 160.494 49.6499 163.643 47.6316C166.835 45.5704 169.128 42.9797 170.523 39.8592C171.75 37.1662 172.357 34.3263 172.344 31.3397C172.331 27.969 171.507 24.7297 169.872 21.6217C168.238 18.4711 165.796 16.0065 162.546 14.2278C161.228 15.3853 159.89 16.7561 158.531 18.3404C157.215 19.9245 155.92 21.6365 154.648 23.4764C153.715 24.8456 152.527 26.5785 151.085 28.6751C149.643 30.729 148.095 32.9328 146.44 35.2863C144.786 37.5971 143.11 39.8013 141.412 41.899C139.756 43.9965 138.249 45.7307 136.889 47.1016C137.872 47.5243 138.855 47.9256 139.838 48.3055C140.863 48.6853 141.889 49.0224 142.914 49.3169ZM117.881 47.2438C117.885 48.0545 118.272 48.7996 119.043 49.4791C119.856 50.2011 121.159 50.5584 122.951 50.551C124.487 50.5447 126.129 50.2819 127.876 49.7628C129.623 49.2436 131.178 48.5545 132.539 47.6955C131.513 47.2304 130.487 46.7653 129.462 46.3002C128.436 45.8351 127.388 45.3701 126.32 44.9051C125.679 44.6091 125.123 44.3767 124.653 44.208C124.183 43.9966 123.777 43.8702 123.435 43.829C123.222 43.7445 123.008 43.7027 122.795 43.7036C122.581 43.7045 122.368 43.7054 122.155 43.7062C120.832 43.7117 119.788 44.1 119.024 44.8711C118.259 45.5996 117.878 46.3905 117.881 47.2438ZM178.242 50.3236C176.791 50.3295 175.765 49.9284 175.165 49.1202C174.564 48.2693 174.261 47.2252 174.256 45.9879C174.251 44.9639 174.396 43.854 174.69 42.6581C175.026 41.4194 175.448 40.2016 175.955 39.0049C175.991 37.3407 176.432 35.6962 177.279 34.0714C178.168 32.4464 179.357 31.0975 180.846 30.0247C182.378 28.9517 184.167 28.411 186.215 28.4026C188.221 28.3943 189.61 28.9646 190.382 30.1134C191.198 31.2621 191.609 32.6257 191.615 34.2044C191.619 35.1431 191.516 36.1035 191.307 37.0857C191.098 38.0252 190.824 38.9224 190.486 39.7771C190.148 40.6318 189.725 41.5082 189.217 42.4063C188.709 43.2618 188.136 44.1175 187.5 44.9734C188.779 44.7548 189.886 44.3449 190.823 43.7437C191.801 43.0997 192.779 42.221 193.756 41.1077C194.733 39.9943 195.879 38.5816 197.194 36.8695C197.449 36.5698 197.726 36.4193 198.024 36.4181C198.366 36.4166 198.644 36.5222 198.858 36.7346C199.115 36.9469 199.244 37.2237 199.245 37.565C199.246 37.821 199.162 38.0561 198.992 38.2701C197.762 39.9818 196.509 41.523 195.235 42.8936C194.003 44.264 192.6 45.3364 191.024 46.1109C189.449 46.8854 187.552 47.2772 185.333 47.2864C184.313 48.1866 183.206 48.9165 182.014 49.476C180.822 50.0356 179.564 50.3181 178.242 50.3236ZM181.885 33.7324C181.375 34.1185 180.759 34.8891 180.039 36.044C179.318 37.199 178.662 38.4604 178.07 39.8282C178.161 41.1505 178.699 42.3429 179.685 43.4056C180.713 44.4253 182.273 44.9949 184.364 45.1143C185.894 43.6147 187.124 41.8603 188.055 39.8511C188.985 37.7993 189.447 35.9627 189.44 34.3414C189.435 33.232 189.176 32.3371 188.661 31.6565C188.146 30.976 187.334 30.638 186.225 30.6425C185.457 30.6457 184.711 30.7768 183.986 31.0358C183.262 31.2947 182.602 31.6388 182.006 32.0679C182.221 32.2804 182.328 32.5359 182.33 32.8346C182.331 33.1759 182.183 33.4752 181.885 33.7324ZM176.495 45.8507C176.498 46.5334 176.628 47.0875 176.886 47.5131C177.186 47.8959 177.635 48.086 178.232 48.0836C179.47 48.0785 180.727 47.6893 182.004 46.9161C180.765 46.6225 179.718 46.1574 178.862 45.521C178.006 44.8418 177.341 44.0765 176.868 43.2251C176.617 44.2502 176.492 45.1254 176.495 45.8507ZM195.097 50.1262C193.775 50.1317 192.642 49.731 191.7 48.9242C190.801 48.1172 190.347 46.7111 190.339 44.7057C190.333 43.3404 190.668 41.739 191.343 39.9016C192.061 38.0639 193.014 36.2893 194.201 34.5778C195.389 32.8235 196.706 31.3888 198.152 30.2735C199.598 29.1155 201.067 28.5335 202.561 28.5273C203.542 28.5233 204.269 28.883 204.741 29.6064C205.256 30.2869 205.515 31.1179 205.519 32.0992C205.525 33.5498 205.062 34.9598 204.129 36.3289C203.196 37.6981 202.006 38.8124 200.558 39.6717C199.154 40.5308 197.748 40.9632 196.34 40.969C195.188 40.9738 194.312 40.6147 193.711 39.8918C193.373 40.7466 193.1 41.5797 192.89 42.3912C192.68 43.2028 192.576 43.9712 192.579 44.6965C192.584 45.9338 192.844 46.8075 193.358 47.3173C193.914 47.7844 194.598 48.0162 195.409 48.0129C196.39 48.0089 197.477 47.7484 198.669 47.2315C199.905 46.7144 201.054 46.1123 202.118 45.4253C203.182 44.6956 203.969 44.095 204.479 43.6236C205.329 42.8947 206.136 42.1021 206.901 41.2456C207.708 40.3463 208.408 39.5114 209.003 38.7409C209.215 38.484 209.449 38.3551 209.705 38.354C209.961 38.353 210.175 38.4801 210.347 38.7354C210.561 38.9478 210.669 39.2247 210.67 39.5661C210.671 39.8647 210.566 40.1638 210.354 40.4634C209.675 41.3195 208.825 42.3043 207.806 43.4179C206.829 44.4886 205.724 45.4958 204.49 46.4395C203.81 46.997 202.938 47.5553 201.873 48.1143C200.809 48.6734 199.68 49.1474 198.487 49.5363C197.337 49.925 196.207 50.1216 195.097 50.1262ZM196.203 38.9216C197.057 38.9181 197.973 38.637 198.952 38.0783C199.974 37.5194 200.867 36.7904 201.631 35.8912C202.438 34.9492 202.967 33.9444 203.218 32.8767C203.261 32.7911 203.282 32.6844 203.281 32.5564C203.281 32.4284 203.28 32.3217 203.28 32.2364C203.277 31.4684 202.998 31.0855 202.443 31.0878C201.547 31.0915 200.61 31.4367 199.631 32.1234C198.653 32.7674 197.718 33.646 196.826 34.759C195.977 35.8291 195.214 37.0056 194.537 38.2884C194.708 38.4157 194.879 38.543 195.05 38.6703C195.221 38.7549 195.392 38.8182 195.563 38.8602C195.649 38.9025 195.755 38.9234 195.883 38.9229C196.011 38.9224 196.118 38.9219 196.203 38.9216Z" fill="black"/>
<rect id="overlay" x="0.5" y="0.5" width="235" height="70"/>
</svg>
