<svg width="236" height="71" viewBox="0 0 236 71" fill="none" xmlns="http://www.w3.org/2000/svg">
<path d="M28.9873 62.8634C26.854 62.8722 24.8685 62.5177 23.0309 61.7999C21.1934 61.1248 19.7172 60.1068 18.6023 58.7461C17.5302 57.4278 16.9903 55.83 16.9826 53.9527C16.9741 51.9047 17.5429 50.1317 18.6887 48.6336C19.8346 47.1356 21.3227 45.8708 23.1531 44.8392C24.9836 43.8077 26.9641 42.9675 29.0948 42.3188C31.2682 41.6698 33.3781 41.1705 35.4247 40.8207C37.4713 40.471 39.2411 40.2504 40.734 40.1589C40.99 40.1578 41.3527 40.1563 41.822 40.1544C42.3338 40.1096 42.9311 40.0858 43.6137 40.083C45.0644 40.0771 46.7926 40.1126 48.7982 40.1897C50.8466 40.2666 52.7886 40.4293 54.6243 40.6777C56.021 37.9413 57.247 35.1629 58.302 32.3425C59.3998 29.522 60.4977 26.7441 61.5958 24.0089C62.7364 21.2309 64.0908 18.5799 65.6591 16.0561C63.6545 16.235 61.65 16.4566 59.6458 16.7209C57.6413 16.9425 55.7021 17.4624 53.8281 18.2808C49.9523 19.9608 47.1017 21.9139 45.2762 24.1401C43.4506 26.3663 42.4348 28.3544 42.2287 30.1046C42.1869 30.3182 42.1664 30.5316 42.1673 30.7449C42.168 30.9156 42.1687 31.0862 42.1694 31.2569C42.1749 32.5796 42.4776 33.5596 43.0775 34.1972C43.72 34.7919 44.5105 35.0873 45.4492 35.0834C46.5585 35.0789 47.709 34.7115 48.9007 33.9812C50.135 33.2508 51.219 32.265 52.1525 31.0238C53.0859 29.74 53.6135 28.3298 53.7352 26.7933L53.7328 26.2173C53.731 25.7906 53.6872 25.5135 53.6014 25.3858C53.558 25.2153 53.4936 25.1089 53.4081 25.0666C52.9375 24.7699 52.7015 24.4508 52.7001 24.1095C52.6989 23.8109 52.8472 23.5542 53.1449 23.3397C53.4427 23.1251 53.7623 23.0171 54.1036 23.0157C54.5729 23.0138 55.0219 23.2466 55.4505 23.7142C55.8789 24.1391 56.0954 24.9062 56.1 26.0155C56.1091 28.2342 55.5412 30.1992 54.3962 31.9106C53.2512 33.622 51.8274 34.9505 50.1246 35.8962C48.4645 36.8417 46.8451 37.3177 45.2664 37.3242C43.7731 37.3304 42.4912 36.8663 41.4206 35.932C40.35 34.9551 39.8103 33.4213 39.8017 31.3306C39.8007 31.0746 39.7996 30.8186 39.7985 30.5626C39.8402 30.3065 39.8818 30.0503 39.9234 29.7941C40.2127 27.5316 41.4189 25.1373 43.5419 22.6112C45.6646 20.0424 48.7918 17.8962 52.9235 16.1725C55.2234 15.1817 57.6103 14.5746 60.084 14.3511C62.6005 14.1274 65.0954 13.8611 67.5688 13.5523C68.2063 12.9523 68.887 12.4588 69.6107 12.0718C70.3771 11.6847 71.1443 11.4895 71.9123 11.4864C72.5097 11.4839 72.9796 11.6313 73.3222 11.9286C73.6647 12.2258 73.8369 12.5878 73.8386 13.0145C73.8407 13.5265 73.5015 14.0399 72.821 14.5547C72.1831 15.0693 71.0539 15.4366 69.4335 15.6566C69.135 15.7005 68.8365 15.7444 68.538 15.7883C67.7742 16.8154 66.969 18.1414 66.1224 19.7663C65.2755 21.3484 64.4928 22.9517 63.7741 24.576C62.4214 27.6536 61.26 30.5384 60.2897 33.2304C59.3194 35.9224 58.2208 38.5296 56.9938 41.052C58.0189 41.3038 58.8948 41.5988 59.6215 41.9372C60.3907 42.2327 60.9042 42.5933 61.162 43.0189C61.3339 43.3168 61.4204 43.6151 61.4217 43.9138C61.4239 44.4685 61.1691 44.7468 60.6571 44.749C60.2304 44.7507 59.8244 44.5817 59.439 44.242C59.3106 44.1572 58.9261 44.0307 58.2854 43.8627C57.6872 43.6518 56.897 43.4417 55.9148 43.2325C54.5173 45.7982 52.9275 48.2581 51.1451 50.6121C49.3628 52.9662 47.3661 55.0651 45.155 56.9088C42.9865 58.7524 40.5604 60.1918 37.8767 61.2268C35.1931 62.3045 32.23 62.8501 28.9873 62.8634ZM19.2866 53.9432C19.2941 55.7779 20.1538 57.3317 21.8658 58.6047C23.6205 59.9201 25.9912 60.5717 28.9779 60.5594C32.8605 60.5434 36.313 59.6972 39.3355 58.0208C42.4008 56.3868 45.1013 54.221 47.4368 51.5234C49.7726 48.8684 51.7873 45.9588 53.481 42.7945L53.417 42.7947C52.1363 42.6293 50.8131 42.5068 49.4474 42.4271C48.0818 42.3473 46.7163 42.3103 45.3509 42.3159C42.2363 42.3287 39.1013 42.5763 35.9459 43.0586C32.8332 43.5407 29.9351 44.342 27.2517 45.4624C24.9089 46.4107 22.9937 47.5706 21.506 48.9421C20.0185 50.3562 19.2787 52.0232 19.2866 53.9432ZM67.6676 49.8402C66.2169 49.8461 65.1913 49.445 64.5906 48.6368C63.9898 47.7859 63.6868 46.7418 63.6817 45.5045C63.6775 44.4805 63.8223 43.3706 64.116 42.1747C64.4523 40.936 64.8739 39.7182 65.381 38.5215C65.4168 36.8573 65.8581 35.2128 66.7047 33.588C67.594 31.963 68.7832 30.6141 70.2721 29.5413C71.8037 28.4683 73.5935 27.9276 75.6415 27.9192C77.6468 27.9109 79.0358 28.4812 79.8085 29.63C80.6239 30.7787 81.0349 32.1423 81.0414 33.721C81.0452 34.6597 80.9425 35.6201 80.7332 36.6023C80.5238 37.5418 80.2501 38.439 79.9123 39.2937C79.5745 40.1484 79.1514 41.0248 78.6431 41.9229C78.1346 42.7784 77.5621 43.6341 76.9257 44.49C78.2048 44.2714 79.3124 43.8615 80.2486 43.2603C81.2273 42.6163 82.205 41.7376 83.1818 40.6243C84.1586 39.5109 85.3048 38.0982 86.6204 36.3861C86.8752 36.0864 87.1519 35.9359 87.4505 35.9347C87.7919 35.9333 88.0696 36.0388 88.2839 36.2512C88.5407 36.4635 88.6699 36.7403 88.6713 37.0816C88.6723 37.3376 88.588 37.5727 88.4182 37.7867C87.1879 39.4984 85.9355 41.0396 84.6612 42.4102C83.4295 43.7806 82.0259 44.853 80.4504 45.6275C78.8749 46.402 76.9778 46.7938 74.7592 46.803C73.7388 47.7032 72.6325 48.4331 71.4401 48.9926C70.2478 49.5522 68.9902 49.8347 67.6676 49.8402ZM71.3114 33.249C70.8009 33.6351 70.1854 34.4057 69.4649 35.5606C68.7443 36.7156 68.0881 37.977 67.4964 39.3448C67.5872 40.6671 68.1254 41.8595 69.1111 42.9222C70.1393 43.9419 71.699 44.5115 73.7902 44.6309C75.3201 43.1313 76.5502 41.3769 77.4806 39.3677C78.4108 37.3159 78.8726 35.4793 78.8659 33.858C78.8614 32.7486 78.6017 31.8537 78.0869 31.1731C77.5721 30.4926 76.76 30.1546 75.6507 30.1591C74.8827 30.1623 74.1366 30.2934 73.4123 30.5524C72.688 30.8113 72.0281 31.1554 71.4325 31.5845C71.6467 31.797 71.7544 32.0525 71.7557 32.3512C71.7571 32.6925 71.609 32.9918 71.3114 33.249ZM65.9212 45.3673C65.924 46.05 66.0543 46.6041 66.312 47.0297C66.6123 47.4125 67.061 47.6026 67.6584 47.6002C68.8957 47.5951 70.1528 47.2059 71.4296 46.4327C70.191 46.1391 69.1438 45.6741 68.2878 45.0376C67.4317 44.3584 66.7672 43.5931 66.2944 42.7417C66.0426 43.7668 65.9182 44.642 65.9212 45.3673ZM80.8736 49.2098C80.5749 49.2111 80.2972 49.1055 80.0403 48.8933C79.7836 48.7236 79.6758 48.4467 79.7169 48.0626C79.8788 45.9286 80.4658 43.4301 81.4781 40.5673C82.533 37.7042 83.8223 34.7976 85.3462 31.8473C84.834 31.8067 84.3218 31.7448 83.8094 31.6616C83.5104 31.5775 83.2751 31.4291 83.1036 31.2165C82.9321 31.0039 82.8458 30.7909 82.845 30.5776C82.8441 30.3642 82.9073 30.172 83.0346 30.0008C83.2044 29.7867 83.4386 29.6791 83.7373 29.6779C83.9933 29.6768 84.2708 29.7184 84.5698 29.8025C84.9113 29.8437 85.2741 29.8636 85.658 29.862C85.914 29.8609 86.1487 29.86 86.362 29.8591C87.8436 26.9943 89.4112 24.2998 91.0648 21.7757C92.7183 19.2088 94.2455 17.0692 95.6465 15.3568C96.4956 14.3293 97.3875 13.3442 98.3223 12.4017C99.2571 11.4592 100.214 10.6873 101.193 10.0859C102.214 9.44169 103.194 9.11766 104.133 9.1138C105.37 9.10871 106.225 9.44653 106.697 10.1273C107.212 10.7651 107.471 11.5748 107.475 12.5561C107.481 13.9641 107.103 15.395 106.341 16.8488C105.706 18.0461 104.751 19.4367 103.478 21.0206C102.204 22.5618 100.717 24.104 99.0168 25.647C97.359 27.1472 95.551 28.4559 93.5929 29.5733C91.6775 30.6906 89.7178 31.4026 87.7137 31.7095C86.8247 33.4199 86.021 35.1085 85.3025 36.7755C84.6267 38.4423 84.0358 40.0234 83.53 41.5188C83.8696 41.0908 84.2091 40.6627 84.5487 40.2346C85.6524 38.8647 86.7565 37.5802 87.8609 36.381C88.9651 35.1391 90.368 33.896 92.0696 32.6516C93.7711 31.4073 95.2818 30.4197 96.6014 29.689C97.9636 28.9153 98.8581 28.549 99.2849 28.5899C100.181 28.7142 100.631 29.203 100.635 30.0564C100.637 30.611 100.469 31.2517 100.131 31.9785C99.835 32.6623 99.5176 33.2823 99.1785 33.8384C98.8395 34.3945 98.6064 34.7794 98.4793 34.9933C98.0129 35.7205 97.3774 36.8112 96.5727 38.2651C95.768 39.7191 95.0912 41.1299 94.5421 42.4975C94.3734 42.9676 94.2047 43.4589 94.0362 43.9716C93.9101 44.4415 93.8478 44.8471 93.8492 45.1884C93.8515 45.7431 94.0873 46.0194 94.5566 46.0175C94.9833 46.0158 95.601 45.7999 96.4099 45.3699C97.4316 44.811 98.3674 44.1031 99.2172 43.2463C100.11 42.3466 100.874 41.5755 101.512 40.9329C101.554 40.89 101.745 40.6759 102.085 40.2905C102.468 39.9049 102.829 39.5194 103.168 39.134C103.551 38.7484 103.742 38.5557 103.742 38.5557C103.912 38.3416 104.125 38.2341 104.381 38.233C104.594 38.2321 104.787 38.3594 104.958 38.6147C105.172 38.8271 105.28 39.104 105.282 39.4453C105.283 39.8293 105.178 40.1498 104.966 40.4066C104.329 41.3053 103.459 42.2902 102.354 43.3614C101.249 44.4326 100.271 45.3113 99.4205 45.9975C98.5274 46.6838 97.6122 47.2209 96.6752 47.6088C95.7381 47.9967 94.8855 48.1922 94.1175 48.1953C93.3069 48.1987 92.6233 47.9668 92.0667 47.4998C91.5527 47.0325 91.2937 46.2869 91.2895 45.2629C91.2856 44.3243 91.4946 43.2781 91.9165 42.1243C92.5067 40.3726 93.3742 38.641 94.5192 36.9296C95.7068 35.218 96.6814 33.5713 97.4429 31.9895C94.3358 33.837 91.465 36.0888 88.8306 38.745C86.1962 41.4012 83.9464 44.2051 82.0812 47.1568C82.0399 47.4983 81.9986 47.8399 81.9574 48.1814C81.9588 48.5227 81.8318 48.7792 81.5765 48.9509C81.3639 49.1225 81.1296 49.2088 80.8736 49.2098ZM104.078 11.354C103.267 11.3574 102.309 11.8093 101.204 12.7099C100.098 13.6104 98.9508 14.7885 97.7621 16.2441C96.6159 17.6568 95.4703 19.1975 94.3251 20.8662C93.1798 22.4923 92.141 24.0753 91.2086 25.6151C90.2761 27.1123 89.5345 28.3527 88.9839 29.3363C90.6881 28.7319 92.5189 27.7857 94.4763 26.4977C96.4337 25.2096 98.2833 23.666 100.025 21.8668C101.767 20.0676 103.21 18.0777 104.353 15.897C104.691 15.2129 104.924 14.6359 105.05 14.1661C105.218 13.6534 105.302 13.2264 105.3 12.885C105.298 12.2877 105.147 11.883 104.847 11.6709C104.591 11.4586 104.334 11.353 104.078 11.354ZM98.6979 50.0965C98.3992 50.0977 98.1215 49.9922 97.8646 49.7799C97.6077 49.5677 97.4787 49.3122 97.4774 49.0135C97.4771 48.9282 97.5191 48.7573 97.6033 48.501C98.4491 46.6628 99.2743 44.9954 100.079 43.4988C100.926 41.9593 101.794 40.4624 102.684 39.008C103.066 38.4091 103.489 37.6394 103.955 36.6988C104.463 35.7153 104.949 34.668 105.414 33.5567C105.879 32.4028 106.258 31.3132 106.552 30.288C106.89 29.2626 107.057 28.4299 107.054 27.7899C107.053 27.4486 107.031 27.214 106.987 27.0862C106.944 27.0437 106.923 26.9585 106.922 26.8305C106.921 26.4891 107.069 26.2112 107.367 25.9966C107.707 25.7392 108.027 25.6099 108.325 25.6087C108.667 25.6073 108.987 25.7766 109.287 26.1167C109.587 26.4142 109.739 26.9469 109.742 27.7149C109.745 28.3549 109.599 29.2088 109.304 30.2767C109.053 31.3017 108.61 32.5409 107.976 33.9942C107.637 34.7209 107.32 35.4049 107.024 36.0461C106.728 36.6447 106.432 37.2219 106.135 37.7778C107.792 36.0216 109.492 34.4573 111.236 33.0848C112.98 31.6696 114.532 30.5539 115.894 29.7376C117.256 28.9213 118.172 28.5122 118.641 28.5103C119.153 28.5082 119.517 28.656 119.731 28.9538C119.946 29.2516 120.054 29.5925 120.055 29.9765C120.058 30.5311 119.89 31.1718 119.551 31.8986C119.255 32.5825 118.938 33.2024 118.599 33.7585C118.26 34.3146 118.027 34.6995 117.9 34.9134C117.433 35.6406 116.798 36.7313 115.993 38.1853C115.188 39.6392 114.511 41.05 113.962 42.4176C113.794 42.8877 113.625 43.379 113.457 43.8917C113.33 44.3616 113.268 44.7672 113.27 45.1085C113.272 45.6632 113.508 45.9395 113.977 45.9376C114.404 45.9359 115.021 45.72 115.83 45.29C116.852 44.7311 117.788 44.0233 118.638 43.1664C119.53 42.2667 120.295 41.4956 120.932 40.853C120.975 40.8101 121.166 40.596 121.505 40.2106C121.888 39.825 122.249 39.4395 122.589 39.0541C122.971 38.6686 123.162 38.4758 123.162 38.4758C123.332 38.2617 123.545 38.1542 123.801 38.1531C124.014 38.1523 124.207 38.2795 124.379 38.5348C124.593 38.7472 124.701 39.0241 124.702 39.3654C124.704 39.7494 124.598 40.0699 124.386 40.3267C123.75 41.2254 122.879 42.2103 121.774 43.2815C120.669 44.3527 119.691 45.2314 118.841 45.9176C117.948 46.604 117.033 47.1624 116.096 47.5929C115.201 47.9806 114.306 48.1763 113.41 48.18C112.642 48.1831 112.002 48.0364 111.488 47.7399C110.975 47.4433 110.716 46.655 110.711 45.375C110.704 43.7537 111.103 42.1521 111.907 40.5701C112.754 38.9879 113.686 37.4267 114.704 35.8865C115.764 34.3462 116.633 32.8919 117.31 31.5238C116.246 32.1682 114.82 33.1554 113.034 34.4854C111.29 35.8152 109.44 37.3802 107.485 39.1803C105.572 40.9375 103.831 42.8647 102.261 44.9618C101.964 45.5177 101.647 46.1163 101.308 46.7577C100.969 47.3991 100.631 48.1045 100.293 48.8739C99.9122 49.6862 99.3806 50.0937 98.6979 50.0965ZM167.145 51.9909C164.073 52.0036 160.765 51.5052 157.219 50.4958C155.98 50.1169 154.762 49.6952 153.566 49.2308C152.369 48.7664 151.173 48.2806 149.976 47.7735C148.445 48.9318 146.571 49.8996 144.356 50.6767C142.14 51.4538 140.03 51.8465 138.024 51.8547C135.422 51.8654 133.521 51.2973 132.321 50.1502C131.165 49.0029 130.583 47.7253 130.578 46.3173C130.572 44.8667 131.142 43.5203 132.289 42.2782C133.436 41.0362 135.012 40.411 137.017 40.4028C138.639 40.3961 140.304 40.7946 142.014 41.5982C143.724 42.4019 145.327 43.142 146.823 43.8185C147.251 44.03 147.7 44.2415 148.17 44.4529C148.64 44.6643 149.111 44.8757 149.581 45.0871C150.984 43.844 152.492 42.1951 154.104 40.1405C155.717 38.0858 157.393 35.8176 159.132 33.3357C160.872 30.8539 162.632 28.3293 164.413 25.762C166.237 23.1944 168.062 20.7336 169.887 18.3794C171.712 16.0252 173.538 13.9696 175.366 12.2128C174.084 11.7061 172.717 11.3277 171.265 11.0776C169.813 10.7849 168.255 10.642 166.591 10.6489C162.111 10.6673 158.23 11.1313 154.949 12.0408C151.71 12.9074 148.984 14.0493 146.771 15.4664C144.601 16.8834 142.879 18.4051 141.606 20.0317C140.375 21.6155 139.528 23.1123 139.064 24.5222C138.896 25.0776 138.77 25.5901 138.686 26.0598C138.603 26.4868 138.562 26.9136 138.564 27.3403C138.57 28.791 139.022 29.8771 139.921 30.5988C140.82 31.3204 141.973 31.6783 143.381 31.6725C144.832 31.6666 146.452 31.2546 148.24 30.4365C150.029 29.6185 151.859 28.3523 153.729 26.6379C155.599 24.8809 157.318 22.5911 158.885 19.7686C159.096 19.3838 159.416 19.1905 159.842 19.1887C160.184 19.1873 160.461 19.2928 160.676 19.5053C160.932 19.6749 161.061 19.9304 161.063 20.2717C161.064 20.485 161 20.6986 160.873 20.9125C159.179 23.9061 157.29 26.3673 155.208 28.2958C153.168 30.2243 151.104 31.6621 149.017 32.6093C146.973 33.5138 145.055 33.9697 143.263 33.977C141.258 33.9853 139.591 33.4375 138.264 32.3336C136.937 31.187 136.269 29.5684 136.26 27.4778C136.255 26.3258 136.464 25.1089 136.885 23.8272C137.433 22.0756 138.407 20.3009 139.807 18.5031C141.251 16.7052 143.164 15.0546 145.547 13.5515C147.973 12.0055 150.911 10.756 154.364 9.80316C157.858 8.85011 161.931 8.36402 166.582 8.34489C168.63 8.33646 170.529 8.52065 172.28 8.89744C174.074 9.27407 175.718 9.80064 177.215 10.4772C178.49 9.36257 179.745 8.48273 180.98 7.83765C182.257 7.19239 183.472 6.86739 184.624 6.86265C185.008 6.86107 185.286 6.98793 185.457 7.24322C185.629 7.45585 185.715 7.7115 185.717 8.01016C185.718 8.30883 185.634 8.58651 185.464 8.84321C185.294 9.05724 185.017 9.16505 184.633 9.16663C183.268 9.17225 181.522 9.9901 179.395 11.6202C182.774 13.6543 185.303 16.3746 186.981 19.7811C188.702 23.1873 189.569 26.7038 189.584 30.3304C189.598 33.7011 188.929 36.8825 187.576 39.8748C186.012 43.4226 183.442 46.3132 179.867 48.5466C176.293 50.8226 172.052 51.9708 167.145 51.9909ZM157.914 48.3169C161.118 49.2424 164.17 49.6992 167.072 49.6872C171.637 49.6684 175.494 48.6499 178.643 46.6316C181.835 44.5704 184.128 41.9797 185.523 38.8592C186.75 36.1662 187.357 33.3263 187.344 30.3397C187.331 26.969 186.507 23.7297 184.872 20.6217C183.238 17.4711 180.796 15.0065 177.546 13.2278C176.228 14.3853 174.89 15.7561 173.531 17.3404C172.215 18.9245 170.92 20.6365 169.648 22.4764C168.715 23.8456 167.527 25.5785 166.085 27.6751C164.643 29.729 163.095 31.9328 161.44 34.2863C159.786 36.5971 158.11 38.8013 156.412 40.899C154.756 42.9965 153.249 44.7307 151.889 46.1016C152.872 46.5243 153.855 46.9256 154.838 47.3055C155.863 47.6853 156.889 48.0224 157.914 48.3169ZM132.881 46.2438C132.885 47.0545 133.272 47.7996 134.043 48.4791C134.856 49.2011 136.159 49.5584 137.951 49.551C139.487 49.5447 141.129 49.2819 142.876 48.7628C144.623 48.2436 146.178 47.5545 147.539 46.6955C146.513 46.2304 145.487 45.7653 144.462 45.3002C143.436 44.8351 142.388 44.3701 141.32 43.9051C140.679 43.6091 140.123 43.3767 139.653 43.208C139.183 42.9966 138.777 42.8702 138.435 42.829C138.222 42.7445 138.008 42.7027 137.795 42.7036C137.581 42.7045 137.368 42.7054 137.155 42.7062C135.832 42.7117 134.788 43.1 134.024 43.8711C133.259 44.5996 132.878 45.3905 132.881 46.2438ZM193.242 49.3236C191.791 49.3295 190.765 48.9284 190.165 48.1202C189.564 47.2693 189.261 46.2252 189.256 44.9879C189.251 43.9639 189.396 42.854 189.69 41.6581C190.026 40.4194 190.448 39.2016 190.955 38.0049C190.991 36.3407 191.432 34.6962 192.279 33.0714C193.168 31.4464 194.357 30.0975 195.846 29.0247C197.378 27.9517 199.167 27.411 201.215 27.4026C203.221 27.3943 204.61 27.9646 205.382 29.1134C206.198 30.2621 206.609 31.6257 206.615 33.2044C206.619 34.1431 206.516 35.1035 206.307 36.0857C206.098 37.0252 205.824 37.9224 205.486 38.7771C205.148 39.6318 204.725 40.5082 204.217 41.4063C203.709 42.2618 203.136 43.1175 202.5 43.9734C203.779 43.7548 204.886 43.3449 205.823 42.7437C206.801 42.0997 207.779 41.221 208.756 40.1077C209.733 38.9943 210.879 37.5816 212.194 35.8695C212.449 35.5698 212.726 35.4193 213.024 35.4181C213.366 35.4166 213.644 35.5222 213.858 35.7346C214.115 35.9469 214.244 36.2237 214.245 36.565C214.246 36.821 214.162 37.0561 213.992 37.2701C212.762 38.9818 211.509 40.523 210.235 41.8936C209.003 43.264 207.6 44.3364 206.024 45.1109C204.449 45.8854 202.552 46.2772 200.333 46.2864C199.313 47.1866 198.206 47.9165 197.014 48.476C195.822 49.0356 194.564 49.3181 193.242 49.3236ZM196.885 32.7324C196.375 33.1185 195.759 33.8891 195.039 35.044C194.318 36.199 193.662 37.4604 193.07 38.8282C193.161 40.1505 193.699 41.3429 194.685 42.4056C195.713 43.4253 197.273 43.9949 199.364 44.1143C200.894 42.6147 202.124 40.8603 203.055 38.8511C203.985 36.7993 204.447 34.9627 204.44 33.3414C204.435 32.232 204.176 31.3371 203.661 30.6565C203.146 29.976 202.334 29.638 201.225 29.6425C200.457 29.6457 199.711 29.7768 198.986 30.0358C198.262 30.2947 197.602 30.6388 197.006 31.0679C197.221 31.2804 197.328 31.5359 197.33 31.8346C197.331 32.1759 197.183 32.4752 196.885 32.7324ZM191.495 44.8507C191.498 45.5334 191.628 46.0875 191.886 46.5131C192.186 46.8959 192.635 47.086 193.232 47.0836C194.47 47.0785 195.727 46.6893 197.004 45.9161C195.765 45.6225 194.718 45.1574 193.862 44.521C193.006 43.8418 192.341 43.0765 191.868 42.2251C191.617 43.2502 191.492 44.1254 191.495 44.8507ZM210.097 49.1262C208.775 49.1317 207.642 48.731 206.7 47.9242C205.801 47.1172 205.347 45.7111 205.339 43.7057C205.333 42.3404 205.668 40.739 206.343 38.9016C207.061 37.0639 208.014 35.2893 209.201 33.5778C210.389 31.8235 211.706 30.3888 213.152 29.2735C214.598 28.1155 216.067 27.5335 217.561 27.5273C218.542 27.5233 219.269 27.883 219.741 28.6064C220.256 29.2869 220.515 30.1179 220.519 31.0992C220.525 32.5498 220.062 33.9598 219.129 35.3289C218.196 36.6981 217.006 37.8124 215.558 38.6717C214.154 39.5308 212.748 39.9632 211.34 39.969C210.188 39.9738 209.312 39.6147 208.711 38.8918C208.373 39.7466 208.1 40.5797 207.89 41.3912C207.68 42.2028 207.576 42.9712 207.579 43.6965C207.584 44.9338 207.844 45.8075 208.358 46.3173C208.914 46.7844 209.598 47.0162 210.409 47.0129C211.39 47.0089 212.477 46.7484 213.669 46.2315C214.905 45.7144 216.054 45.1123 217.118 44.4253C218.182 43.6956 218.969 43.095 219.479 42.6236C220.329 41.8947 221.136 41.1021 221.901 40.2456C222.708 39.3463 223.408 38.5114 224.003 37.7409C224.215 37.484 224.449 37.3551 224.705 37.354C224.961 37.353 225.175 37.4801 225.347 37.7354C225.561 37.9478 225.669 38.2247 225.67 38.5661C225.671 38.8647 225.566 39.1638 225.354 39.4634C224.675 40.3195 223.825 41.3043 222.806 42.4179C221.829 43.4886 220.724 44.4958 219.49 45.4395C218.81 45.997 217.938 46.5553 216.873 47.1143C215.809 47.6734 214.68 48.1474 213.487 48.5363C212.337 48.925 211.207 49.1216 210.097 49.1262ZM211.203 37.9216C212.057 37.9181 212.973 37.637 213.952 37.0783C214.974 36.5194 215.867 35.7904 216.631 34.8912C217.438 33.9492 217.967 32.9444 218.218 31.8767C218.261 31.7911 218.282 31.6844 218.281 31.5564C218.281 31.4284 218.28 31.3217 218.28 31.2364C218.277 30.4684 217.998 30.0855 217.443 30.0878C216.547 30.0915 215.61 30.4367 214.631 31.1234C213.653 31.7674 212.718 32.646 211.826 33.759C210.977 34.8291 210.214 36.0056 209.537 37.2884C209.708 37.4157 209.879 37.543 210.05 37.6703C210.221 37.7549 210.392 37.8182 210.563 37.8602C210.649 37.9025 210.755 37.9234 210.883 37.9229C211.011 37.9224 211.118 37.9219 211.203 37.9216Z" fill="black"/>
<rect id="overlay" width="236" height="71" fill="#1B1918"/>
</svg>
